<svg xmlns="http://www.w3.org/2000/svg" width="32" height="32" viewBox="0 0 24 24" fill="none" stroke="#059669" stroke-width="2" stroke-linecap="round" stroke-linejoin="round">
  <path d="M13 8c0-2.76-2.46-5-5.5-5S2 5.24 2 8h11Z"/>
  <path d="M13 7.14A5.82 5.82 0 0 1 16.5 6c3.04 0 5.5 2.24 5.5 5h-9Z"/>
  <path d="M5.89 9.71c-2.15 2.15-2.3 5.47-.35 7.43l4.24-4.25.7-.7.71-.71 2.12-2.12c-1.95-1.96-5.27-1.8-7.42.35Z"/>
  <path d="M11 15.5c.5 2.5-.17 4.5-1 6.5h4c2-5.5-.5-12-3-13Z"/>
  <circle cx="12" cy="12" r="1" fill="#059669"/>
</svg> 