<?xml version="1.0" standalone="no"?>
<!DOCTYPE svg PUBLIC "-//W3C//DTD SVG 20010904//EN"
 "http://www.w3.org/TR/2001/REC-SVG-20010904/DTD/svg10.dtd">
<svg version="1.0" xmlns="http://www.w3.org/2000/svg"
 width="1280.000000pt" height="640.000000pt" viewBox="0 0 1280.000000 640.000000"
 preserveAspectRatio="xMidYMid meet">
<metadata>
Created by potrace 1.15, written by Peter Selinger 2001-2017
</metadata>
<g transform="translate(0.000000,640.000000) scale(0.100000,-0.100000)"
fill="#000000" stroke="none">
<path d="M5210 6235 l-65 -66 125 -119 c69 -65 128 -119 132 -119 3 -1 62 53
130 118 l123 119 -65 66 c-35 36 -69 66 -74 66 -6 0 -34 -23 -63 -52 l-53 -52
-53 52 c-29 29 -57 52 -63 52 -5 0 -39 -29 -74 -65z"/>
<path d="M8955 5354 l-70 -65 128 -126 128 -127 126 126 126 126 -69 65 -68
65 -59 -51 -58 -51 -52 52 c-29 29 -55 52 -57 52 -3 -1 -36 -30 -75 -66z"/>
<path d="M5555 5044 c-119 -21 -262 -68 -375 -125 -136 -68 -272 -175 -645
-509 -678 -607 -974 -818 -1323 -940 l-124 -43 52 -31 c311 -183 601 -390 875
-625 55 -47 271 -255 480 -461 209 -207 431 -418 493 -468 420 -341 807 -490
1322 -509 559 -20 1029 134 1461 481 150 120 322 282 535 503 221 228 367 367
551 519 227 190 520 398 736 523 59 35 107 64 107 66 0 1 -60 24 -132 50 -240
85 -437 204 -740 447 -149 119 -280 232 -767 661 -279 246 -399 328 -568 390
-181 67 -258 81 -443 81 -143 1 -176 -2 -245 -22 -144 -41 -291 -131 -370
-225 l-35 -42 -78 75 c-120 115 -235 174 -400 206 -92 17 -261 17 -367 -2z"/>
<path d="M3320 2075 l-65 -65 90 -91 c50 -50 107 -104 128 -121 l37 -30 125
118 c69 64 125 120 125 123 0 4 -32 35 -71 70 l-71 64 -54 -54 -54 -53 -53 52
c-29 29 -57 52 -63 52 -5 0 -39 -29 -74 -65z"/>
<path d="M6640 404 l-65 -65 125 -119 c69 -66 128 -119 131 -120 3 0 62 54
130 119 l124 119 -65 66 c-35 36 -69 66 -74 66 -6 0 -34 -23 -63 -52 l-53 -52
-53 52 c-29 29 -57 52 -63 52 -5 0 -39 -30 -74 -66z"/>
</g>
</svg>
